<svg width="500" height="500" viewBox="0 0 500 500" fill="none" xmlns="http://www.w3.org/2000/svg">
<path d="M500 250C500 388.071 388.071 500 250 500C111.929 500 0 388.071 0 250C0 111.929 111.929 0 250 0C388.071 0 500 111.929 500 250Z" fill="#FF0004" fill-opacity="0.937255"/>
<path d="M254.6 400C251.133 400 248.467 399.133 246.6 397.4L224.4 375L186.6 337.4C185.133 335.933 184.2 334.8 183.8 334C183.533 333.067 183.4 331.533 183.4 329.4V204C183.4 201.733 183.533 200.2 183.8 199.4C184.2 198.6 185.133 197.467 186.6 196L216.6 165.6L246.6 136C247.8 134.8 249 134.067 250.2 133.8C251.4 133.533 252.867 133.4 254.6 133.4H310.6C313.933 133.4 315.6 135.067 315.6 138.4V193.6C315.6 194.8 315.467 195.933 315.2 197C315.067 197.933 314.467 198.933 313.4 200L287 226L266 247.4V289.4L289.6 313.4L313.4 336.6C314.467 337.533 315.067 338.533 315.2 339.6C315.467 340.667 315.6 341.8 315.6 343V395C315.6 398.333 313.933 400 310.6 400H254.6Z" fill="white"/>
</svg>
